<svg width="626" height="40" viewBox="0 0 626 40" fill="none" xmlns="http://www.w3.org/2000/svg">
<path opacity="0.2" d="M40.432 30.416V31.416H42.0331L41.3306 29.9772L40.432 30.416ZM32.432 14.032L33.3306 13.5932L32.4211 11.7305L31.5293 13.6018L32.432 14.032ZM24.624 30.416L23.7213 29.9858L23.0397 31.416H24.624V30.416ZM49.968 50L49.0677 50.4352L49.3407 51H49.968V50ZM46.256 42.32L47.1563 41.8848L46.8833 41.32H46.256V42.32ZM19.056 42.32V41.32H18.4239L18.1527 41.8909L19.056 42.32ZM15.408 50V51H16.0401L16.3113 50.4291L15.408 50ZM-3.024 50L-3.92035 49.5566L-4.63426 51H-3.024V50ZM20.528 2.384V1.384H19.907L19.6317 1.94065L20.528 2.384ZM44.976 2.384L45.8622 1.92066L45.5816 1.384H44.976V2.384ZM69.872 50V51H71.5233L70.7582 49.5367L69.872 50ZM41.3306 29.9772L33.3306 13.5932L31.5334 14.4708L39.5334 30.8548L41.3306 29.9772ZM31.5293 13.6018L23.7213 29.9858L25.5267 30.8462L33.3347 14.4622L31.5293 13.6018ZM24.624 31.416H40.432V29.416H24.624V31.416ZM50.8684 49.5648L47.1563 41.8848L45.3557 42.7552L49.0677 50.4352L50.8684 49.5648ZM46.256 41.32H19.056V43.32H46.256V41.32ZM18.1527 41.8909L14.5047 49.5709L16.3113 50.4291L19.9593 42.7491L18.1527 41.8909ZM15.408 49H-3.024V51H15.408V49ZM-2.12765 50.4434L21.4243 2.82735L19.6317 1.94065L-3.92035 49.5566L-2.12765 50.4434ZM20.528 3.384H44.976V1.384H20.528V3.384ZM44.0898 2.84734L68.9858 50.4633L70.7582 49.5367L45.8622 1.92066L44.0898 2.84734ZM69.872 49H49.968V51H69.872V49ZM71.947 2.384V1.384H70.947V2.384H71.947ZM123.595 2.384H124.595V1.384H123.595V2.384ZM123.595 14.032V15.032H124.595V14.032H123.595ZM89.931 14.032V13.032H88.931V14.032H89.931ZM89.931 19.984H88.931V20.984H89.931V19.984ZM122.891 19.984H123.891V18.984H122.891V19.984ZM122.891 31.696V32.696H123.891V31.696H122.891ZM89.931 31.696V30.696H88.931V31.696H89.931ZM89.931 50V51H90.931V50H89.931ZM71.947 50H70.947V51H71.947V50ZM71.947 3.384H123.595V1.384H71.947V3.384ZM122.595 2.384V14.032H124.595V2.384H122.595ZM123.595 13.032H89.931V15.032H123.595V13.032ZM88.931 14.032V19.984H90.931V14.032H88.931ZM89.931 20.984H122.891V18.984H89.931V20.984ZM121.891 19.984V31.696H123.891V19.984H121.891ZM122.891 30.696H89.931V32.696H122.891V30.696ZM88.931 31.696V50H90.931V31.696H88.931ZM89.931 49H71.947V51H89.931V49ZM72.947 50V2.384H70.947V50H72.947ZM147.061 13.968V12.968H146.061V13.968H147.061ZM147.061 22.16H146.061V23.16H147.061V22.16ZM147.061 33.68V32.68H146.061V33.68H147.061ZM147.061 50V51H148.061V50H147.061ZM128.885 50H127.885V51H128.885V50ZM128.885 2.384V1.384H127.885V2.384H128.885ZM188.661 22.928L188.055 22.1318L188.048 22.1378L188.04 22.144L188.661 22.928ZM185.589 24.848L185.172 23.9389L185.164 23.9423L185.157 23.9459L185.589 24.848ZM182.581 25.936L182.338 24.9659L182.361 26.9115L182.581 25.936ZM189.749 29.904L189.002 30.5694L189.009 30.5775L189.749 29.904ZM193.268 49.68H194.268V49.4279L194.149 49.2059L193.268 49.68ZM193.268 50V51H194.268V50H193.268ZM174.708 50L173.965 50.669L174.263 51H174.708V50ZM171.893 35.728L171.207 36.4562L171.218 36.4666L171.229 36.4766L171.893 35.728ZM146.061 13.968V22.16H148.061V13.968H146.061ZM147.061 23.16H167.924V21.16H147.061V23.16ZM167.924 23.16C169.854 23.16 171.483 22.8061 172.65 21.9382C173.871 21.0291 174.428 19.6763 174.428 18.064H172.428C172.428 19.1824 172.068 19.8776 171.455 20.3338C170.787 20.8312 169.664 21.16 167.924 21.16V23.16ZM174.428 18.064V18H172.428V18.064H174.428ZM174.428 18C174.428 16.4031 173.867 15.0654 172.643 14.1693C171.478 13.3157 169.852 12.968 167.924 12.968V14.968C169.667 14.968 170.792 15.2923 171.462 15.7827C172.073 16.2306 172.428 16.9089 172.428 18H174.428ZM167.924 12.968H147.061V14.968H167.924V12.968ZM146.061 33.68V50H148.061V33.68H146.061ZM147.061 49H128.885V51H147.061V49ZM129.885 50V2.384H127.885V50H129.885ZM128.885 3.384H172.148V1.384H128.885V3.384ZM172.148 3.384C178.757 3.384 183.545 4.39795 186.652 6.29362C189.678 8.14031 191.181 10.8642 191.181 14.608H193.181C193.181 10.2025 191.344 6.81435 187.693 4.58638C184.123 2.40738 178.895 1.384 172.148 1.384V3.384ZM191.181 14.608V15.312H193.181V14.608H191.181ZM191.181 15.312C191.181 16.7983 190.888 18.1191 190.32 19.2924L192.121 20.1636C192.833 18.6916 193.181 17.0684 193.181 15.312H191.181ZM190.32 19.2924C189.742 20.4873 188.985 21.4254 188.055 22.1318L189.266 23.7242C190.469 22.8092 191.419 21.614 192.121 20.1636L190.32 19.2924ZM188.04 22.144C187.069 22.9126 186.113 23.5078 185.172 23.9389L186.005 25.7571C187.112 25.2496 188.204 24.5647 189.281 23.712L188.04 22.144ZM185.157 23.9459C184.234 24.3871 183.295 24.7266 182.338 24.9659L182.823 26.9061C183.914 26.6334 184.98 26.2475 186.02 25.7501L185.157 23.9459ZM182.361 26.9115C185.224 27.5569 187.415 28.7892 189.002 30.5694L190.495 29.2386C188.583 27.0934 185.995 25.6805 182.8 24.9605L182.361 26.9115ZM189.009 30.5775C190.566 32.2858 191.372 34.4866 191.372 37.264H193.372C193.372 34.0681 192.43 31.3622 190.488 29.2305L189.009 30.5775ZM191.372 37.264V44.304H193.372V37.264H191.372ZM191.372 44.304C191.372 46.8135 191.668 48.8162 192.388 50.1541L194.149 49.2059C193.675 48.3252 193.372 46.7438 193.372 44.304H191.372ZM192.268 49.68V50H194.268V49.68H192.268ZM193.268 49H174.708V51H193.268V49ZM175.452 49.331C175.415 49.2905 175.326 49.1565 175.251 48.8311C175.178 48.5137 175.133 48.0776 175.133 47.504H173.133C173.133 48.1678 173.183 48.7663 173.302 49.2809C173.419 49.7875 173.618 50.2829 173.965 50.669L175.452 49.331ZM175.133 47.504V41.936H173.133V47.504H175.133ZM175.133 41.936C175.133 38.9553 174.34 36.5598 172.556 34.9794L171.229 36.4766C172.432 37.5415 173.133 39.2847 173.133 41.936H175.133ZM172.578 34.9998C170.844 33.3681 168.046 32.68 164.469 32.68V34.68C167.889 34.68 170.04 35.3572 171.207 36.4562L172.578 34.9998ZM164.469 32.68H147.061V34.68H164.469V32.68ZM244.686 2.384L244.516 3.36948L244.53 3.37166L244.686 2.384ZM253.454 4.624L253.083 5.55247L253.093 5.55651L253.103 5.56033L253.454 4.624ZM259.663 8.016L259.047 8.80432L259.058 8.81259L259.069 8.82057L259.663 8.016ZM263.887 12.048L264.686 11.448V11.448L263.887 12.048ZM266.319 16.528L265.38 16.8737L265.384 16.8845L265.388 16.8952L266.319 16.528ZM267.534 20.944L266.543 21.072L266.545 21.0876L266.547 21.1032L267.534 20.944ZM267.534 31.184L266.547 31.0248L266.545 31.0404L266.543 31.056L267.534 31.184ZM266.319 35.664L265.385 35.305L265.383 35.3116L265.38 35.3183L266.319 35.664ZM263.887 40.208L263.078 39.6198L263.074 39.6244L263.887 40.208ZM259.727 44.304L259.12 43.5086L259.727 44.304ZM253.518 47.76L253.89 48.6885L253.518 47.76ZM244.751 50L244.594 49.0122L244.58 49.0146L244.751 50ZM218.639 50L218.807 49.0142L218.797 49.0126L218.639 50ZM209.87 47.76L209.499 48.6885L209.505 48.6908L209.87 47.76ZM203.663 44.304L203.056 45.0994L203.663 44.304ZM199.439 40.208L198.618 40.7798L198.628 40.7941L198.639 40.808L199.439 40.208ZM197.007 35.664L196.065 36.0019L196.071 36.0166L196.076 36.0312L197.007 35.664ZM195.79 31.184L194.799 31.312L194.801 31.3276L194.803 31.3432L195.79 31.184ZM195.79 20.944L194.803 20.7848L194.801 20.8004L194.799 20.816L195.79 20.944ZM197.007 16.528L196.076 16.1608L196.072 16.1715L196.068 16.1823L197.007 16.528ZM199.439 12.048L198.639 11.448L198.632 11.4561L198.626 11.4644L199.439 12.048ZM203.663 8.016L204.256 8.82057L204.262 8.81605L204.269 8.81143L203.663 8.016ZM209.87 4.624L210.227 5.55826L210.236 5.55475L209.87 4.624ZM218.639 2.384L218.797 3.37141L218.807 3.36974L218.639 2.384ZM248.271 21.648L247.346 22.0304L247.351 22.0419L248.271 21.648ZM245.646 18.064L244.952 18.7838L244.959 18.7899L244.965 18.7959L245.646 18.064ZM240.271 15.312L240.545 14.3505L240.271 15.312ZM222.991 15.312L222.716 14.3505L222.991 15.312ZM217.615 18.064L218.309 18.7838L217.615 18.064ZM215.055 21.648L214.13 21.2656L214.127 21.274L214.124 21.2823L215.055 21.648ZM215.118 30.352L214.19 30.7234L214.194 30.7344L215.118 30.352ZM217.678 34.064L216.959 34.7586L216.965 34.7649L216.971 34.7711L217.678 34.064ZM223.055 36.944L222.764 37.9009L222.769 37.9023L223.055 36.944ZM240.271 37.008L240.545 37.9696L240.556 37.9663L240.271 37.008ZM245.711 34.128L246.418 34.8351L245.711 34.128ZM248.271 30.48L249.195 30.8624L249.199 30.8514L248.271 30.48ZM230.286 2.488H233.167V0.487999H230.286V2.488ZM233.167 2.488C237.345 2.488 241.126 2.78351 244.516 3.36939L244.857 1.39861C241.335 0.789825 237.436 0.487999 233.167 0.487999V2.488ZM244.53 3.37166C247.982 3.91893 250.827 4.65004 253.083 5.55247L253.826 3.69552C251.389 2.72063 248.388 1.9584 244.843 1.39633L244.53 3.37166ZM253.103 5.56033C255.412 6.42592 257.389 7.51 259.047 8.80432L260.278 7.22768C258.437 5.79133 256.276 4.61408 253.806 3.68767L253.103 5.56033ZM259.069 8.82057C260.805 10.102 262.136 11.3801 263.087 12.648L264.686 11.448C263.589 9.98525 262.104 8.57532 260.256 7.21143L259.069 8.82057ZM263.087 12.648C264.052 13.9348 264.816 15.3423 265.38 16.8737L267.257 16.1823C266.626 14.4711 265.769 12.8919 264.686 11.448L263.087 12.648ZM265.388 16.8952C266.007 18.4617 266.385 19.8519 266.543 21.072L268.526 20.816C268.342 19.3908 267.91 17.837 267.249 16.1608L265.388 16.8952ZM266.547 21.1032C266.751 22.3691 266.854 23.7023 266.854 25.104H268.854C268.854 23.6043 268.744 22.1642 268.522 20.7848L266.547 21.1032ZM266.854 25.104V27.024H268.854V25.104H266.854ZM266.854 27.024C266.854 28.4257 266.751 29.7589 266.547 31.0248L268.522 31.3432C268.744 29.9638 268.854 28.5237 268.854 27.024H266.854ZM266.543 31.056C266.385 32.2783 266.005 33.6922 265.385 35.305L267.252 36.023C267.912 34.3078 268.343 32.7351 268.526 31.312L266.543 31.056ZM265.38 35.3183C264.815 36.8526 264.048 38.2857 263.078 39.6198L264.695 40.7962C265.773 39.3143 266.627 37.7181 267.257 36.0097L265.38 35.3183ZM263.074 39.6244C262.167 40.8873 260.859 42.1842 259.12 43.5086L260.333 45.0994C262.178 43.6931 263.644 42.2594 264.699 40.7916L263.074 39.6244ZM259.12 43.5086C257.408 44.813 255.42 45.9224 253.147 46.8315L253.89 48.6885C256.31 47.7203 258.461 46.5257 260.333 45.0994L259.12 43.5086ZM253.147 46.8315C250.891 47.734 248.046 48.4651 244.594 49.0123L244.907 50.9877C248.452 50.4256 251.453 49.6634 253.89 48.6885L253.147 46.8315ZM244.58 49.0146C241.191 49.6004 237.388 49.896 233.167 49.896V51.896C237.478 51.896 241.398 51.5943 244.921 50.9854L244.58 49.0146ZM233.167 49.896H230.286V51.896H233.167V49.896ZM230.286 49.896C226.065 49.896 222.24 49.6004 218.807 49.0143L218.47 50.9857C222.034 51.5942 225.974 51.896 230.286 51.896V49.896ZM218.797 49.0126C215.388 48.4655 212.54 47.7341 210.236 46.8292L209.505 48.6908C211.98 49.6632 214.977 50.4251 218.48 50.9874L218.797 49.0126ZM210.242 46.8315C207.969 45.9224 205.981 44.813 204.269 43.5086L203.056 45.0994C204.928 46.5257 207.079 47.7203 209.499 48.6885L210.242 46.8315ZM204.269 43.5086C202.528 42.1824 201.193 40.8803 200.238 39.608L198.639 40.808C199.732 42.2663 201.213 43.6949 203.056 45.0994L204.269 43.5086ZM200.259 39.6362C199.323 38.2929 198.549 36.8471 197.937 35.2968L196.076 36.0312C196.744 37.7236 197.592 39.3071 198.618 40.7798L200.259 39.6362ZM197.948 35.3261C197.365 33.7029 196.979 32.2709 196.778 31.0248L194.803 31.3432C195.029 32.7424 195.453 34.2971 196.065 36.0019L197.948 35.3261ZM196.782 31.056C196.618 29.7793 196.535 28.4356 196.535 27.024H194.535C194.535 28.5138 194.622 29.9434 194.799 31.312L196.782 31.056ZM196.535 27.024V25.104H194.535V27.024H196.535ZM196.535 25.104C196.535 23.6924 196.618 22.3487 196.782 21.072L194.799 20.816C194.622 22.1846 194.535 23.6142 194.535 25.104H196.535ZM196.778 21.1032C196.978 19.8593 197.364 18.451 197.945 16.8737L196.068 16.1823C195.455 17.8477 195.029 19.3833 194.803 20.7848L196.778 21.1032ZM197.937 16.8952C198.547 15.3478 199.319 13.9275 200.251 12.6316L198.626 11.4644C197.595 12.8991 196.746 14.4656 196.076 16.1608L197.937 16.8952ZM200.238 12.648C201.189 11.3801 202.52 10.102 204.256 8.82057L203.069 7.21143C201.221 8.57532 199.736 9.98525 198.639 11.448L200.238 12.648ZM204.269 8.81143C205.976 7.51027 207.96 6.42398 210.227 5.55821L209.514 3.68978C207.088 4.61602 204.933 5.79107 203.056 7.22057L204.269 8.81143ZM210.236 5.55475C212.54 4.64986 215.388 3.91845 218.797 3.37136L218.48 1.39664C214.977 1.95888 211.98 2.72081 209.505 3.69324L210.236 5.55475ZM218.807 3.36974C222.24 2.78357 226.065 2.488 230.286 2.488V0.487999C225.974 0.487999 222.034 0.789766 218.47 1.39826L218.807 3.36974ZM250.038 26.448V25.552H248.038V26.448H250.038ZM250.038 25.552C250.038 24.02 249.759 22.5833 249.19 21.2541L247.351 22.0419C247.806 23.102 248.038 24.268 248.038 25.552H250.038ZM249.195 21.2656C248.615 19.8657 247.644 18.557 246.328 17.3321L244.965 18.7959C246.124 19.875 246.902 20.9556 247.346 22.0303L249.195 21.2656ZM246.341 17.3442C244.984 16.0358 243.02 15.0575 240.545 14.3505L239.996 16.2735C242.3 16.9318 243.92 17.7882 244.952 18.7838L246.341 17.3442ZM240.545 14.3505C238.042 13.6353 235.086 13.288 231.695 13.288V15.288C234.959 15.288 237.72 15.6233 239.996 16.2735L240.545 14.3505ZM231.695 13.288C228.22 13.288 225.221 13.6348 222.716 14.3505L223.265 16.2735C225.539 15.6239 228.342 15.288 231.695 15.288V13.288ZM222.716 14.3505C220.241 15.0575 218.277 16.0358 216.92 17.3442L218.309 18.7838C219.341 17.7882 220.961 16.9318 223.265 16.2735L222.716 14.3505ZM216.92 17.3442C215.65 18.5694 214.706 19.8746 214.13 21.2656L215.979 22.0303C216.427 20.9467 217.19 19.8626 218.309 18.7838L216.92 17.3442ZM214.124 21.2823C213.604 22.6043 213.35 24.031 213.35 25.552H215.35C215.35 24.257 215.566 23.081 215.985 22.0137L214.124 21.2823ZM213.35 25.552V26.32H215.35V25.552H213.35ZM213.35 26.32C213.35 27.8524 213.63 29.3227 214.19 30.7234L216.047 29.9806C215.583 28.8213 215.35 27.6036 215.35 26.32H213.35ZM214.194 30.7344C214.766 32.1155 215.701 33.4555 216.959 34.7586L218.398 33.3694C217.267 32.1979 216.495 31.0632 216.043 29.9696L214.194 30.7344ZM216.971 34.7711C218.325 36.1244 220.287 37.1489 222.764 37.9009L223.345 35.9871C221.043 35.2884 219.422 34.393 218.386 33.3569L216.971 34.7711ZM222.769 37.9023C225.317 38.6623 228.298 39.032 231.695 39.032V37.032C228.435 37.032 225.656 36.6763 223.34 35.9857L222.769 37.9023ZM231.695 39.032C235.086 39.032 238.042 38.6847 240.545 37.9695L239.996 36.0465C237.72 36.6966 234.959 37.032 231.695 37.032V39.032ZM240.556 37.9663C243.074 37.2154 245.061 36.1915 246.418 34.8351L245.003 33.4209C243.97 34.4538 242.331 35.3499 239.985 36.0497L240.556 37.9663ZM246.418 34.8351C247.682 33.5709 248.621 32.2484 249.195 30.8624L247.346 30.0976C246.896 31.1863 246.129 32.2957 245.003 33.4209L246.418 34.8351ZM249.199 30.8514C249.759 29.4507 250.038 27.9804 250.038 26.448H248.038C248.038 27.7316 247.806 28.9493 247.342 30.1086L249.199 30.8514ZM270.208 33.36V32.36H269.208V33.36H270.208ZM290.177 33.36L291.174 33.284L291.103 32.36H290.177V33.36ZM308.737 39.76L308.867 40.7515L308.88 40.7498L308.892 40.7478L308.737 39.76ZM312.32 38.736L312.806 39.6102L312.824 39.6001L312.842 39.5893L312.32 38.736ZM313.857 37.328L312.993 36.8241L312.985 36.8365L312.979 36.8491L313.857 37.328ZM313.6 33.424L312.808 34.0337L312.834 34.0679L312.863 34.0997L313.6 33.424ZM310.401 32.016L310.152 32.9847L310.167 32.9883L310.181 32.9916L310.401 32.016ZM303.104 31.248L303.076 32.2476L303.078 32.2476L303.104 31.248ZM294.272 30.992L294.301 29.9924L294.3 29.9924L294.272 30.992ZM271.616 11.6L272.559 11.9344L272.562 11.9251L271.616 11.6ZM274.177 7.632L273.458 6.93697L274.177 7.632ZM279.04 4.432L279.432 5.35215L279.04 4.432ZM286.913 2.384L287.068 3.37182L287.079 3.37004L286.913 2.384ZM332.928 17.104V18.104H333.928V17.104H332.928ZM313.152 17.104L312.159 17.2172L312.26 18.104H313.152V17.104ZM294.081 12.624L294.286 13.6025L294.299 13.6L294.311 13.5971L294.081 12.624ZM291.073 13.84L291.816 14.509L291.832 14.4915L291.846 14.4732L291.073 13.84ZM291.137 17.424L290.397 18.0967L290.413 18.1143L290.429 18.1311L291.137 17.424ZM294.208 18.704L293.972 19.6757L293.985 19.6787L293.997 19.6814L294.208 18.704ZM300.865 19.28L300.887 18.2802L300.879 18.2801L300.865 19.28ZM309.44 19.472L309.469 18.4724L309.463 18.4722L309.44 19.472ZM328.768 23.248L328.265 24.1122L328.272 24.1162L328.768 23.248ZM333.953 39.504L334.91 39.794L334.912 39.7862L333.953 39.504ZM331.393 43.856L332.142 44.5176L332.147 44.5122L332.152 44.5068L331.393 43.856ZM326.272 47.568L326.697 48.4733L326.705 48.4695L326.272 47.568ZM317.697 50L317.861 50.9864L317.87 50.9848L317.697 50ZM305.089 49.896H299.264V51.896H305.089V49.896ZM299.264 49.896C289.643 49.896 282.591 48.4915 277.975 45.8075C273.442 43.1718 271.208 39.2782 271.208 34H269.208C269.208 39.9858 271.817 44.5402 276.97 47.5365C282.039 50.4845 289.515 51.896 299.264 51.896V49.896ZM271.208 34V33.36H269.208V34H271.208ZM270.208 34.36H290.177V32.36H270.208V34.36ZM289.179 33.436C289.376 36.0143 290.647 37.9896 292.917 39.2708C295.12 40.5144 298.213 41.08 302.081 41.08V39.08C298.354 39.08 295.665 38.5256 293.9 37.5292C292.202 36.5704 291.319 35.1857 291.174 33.284L289.179 33.436ZM302.081 41.08H302.656V39.08H302.081V41.08ZM302.656 41.08C305.113 41.08 307.187 40.9725 308.867 40.7515L308.606 38.7685C307.043 38.9742 305.064 39.08 302.656 39.08V41.08ZM308.892 40.7478C310.547 40.4865 311.882 40.1236 312.806 39.6102L311.835 37.8618C311.223 38.2018 310.169 38.5215 308.581 38.7722L308.892 40.7478ZM312.842 39.5893C313.669 39.0837 314.355 38.502 314.734 37.8069L312.979 36.8491C312.846 37.0927 312.508 37.4496 311.799 37.8827L312.842 39.5893ZM314.72 37.8319C315.115 37.1548 315.305 36.4025 315.305 35.6H313.305C313.305 36.0775 313.195 36.4772 312.993 36.8241L314.72 37.8319ZM315.305 35.6V35.536H313.305V35.6H315.305ZM315.305 35.536C315.305 34.4647 315.021 33.4933 314.338 32.7483L312.863 34.0997C313.119 34.3787 313.305 34.8153 313.305 35.536H315.305ZM314.393 32.8143C314.031 32.3432 313.48 32.0032 312.883 31.7407C312.27 31.4706 311.508 31.2403 310.62 31.0404L310.181 32.9916C310.999 33.1757 311.625 33.372 312.078 33.5713C312.548 33.7781 312.744 33.9501 312.808 34.0337L314.393 32.8143ZM310.649 31.0473C308.875 30.5925 306.354 30.3343 303.131 30.2484L303.078 32.2476C306.255 32.3324 308.598 32.5862 310.152 32.9847L310.649 31.0473ZM303.133 30.2484L294.301 29.9924L294.244 31.9916L303.076 32.2476L303.133 30.2484ZM294.3 29.9924C286.58 29.7809 280.948 28.4896 277.276 26.2357C273.678 24.0281 271.913 20.8734 271.913 16.656H269.913C269.913 21.5693 272.04 25.3692 276.229 27.9403C280.343 30.4651 286.392 31.7765 294.245 31.9916L294.3 29.9924ZM271.913 16.656V16.08H269.913V16.656H271.913ZM271.913 16.08C271.913 14.5093 272.134 13.1318 272.559 11.9344L270.674 11.2656C270.16 12.7135 269.913 14.3227 269.913 16.08H271.913ZM272.562 11.9251C272.974 10.7266 273.737 9.52575 274.895 8.32702L273.458 6.93697C272.142 8.29825 271.197 9.74277 270.671 11.2749L272.562 11.9251ZM274.895 8.32702C276.021 7.16219 277.523 6.16453 279.432 5.35215L278.649 3.51184C276.547 4.40613 274.806 5.54181 273.458 6.93697L274.895 8.32702ZM279.432 5.35215C281.334 4.54272 283.87 3.87672 287.068 3.37176L286.757 1.39624C283.469 1.91527 280.757 2.6146 278.649 3.51184L279.432 5.35215ZM287.079 3.37004C290.296 2.8269 294.036 2.552 298.305 2.552V0.551998C293.955 0.551998 290.1 0.831764 286.746 1.39795L287.079 3.37004ZM298.305 2.552H304V0.551998H298.305V2.552ZM304 2.552C313.589 2.552 320.628 3.80375 325.235 6.19925C327.524 7.38937 329.186 8.84761 330.279 10.5517C331.368 12.2515 331.928 14.2525 331.928 16.592H333.928C333.928 13.9182 333.283 11.5325 331.962 9.47227C330.644 7.41638 328.69 5.74129 326.158 4.42475C321.123 1.80691 313.697 0.551998 304 0.551998V2.552ZM331.928 16.592V17.104H333.928V16.592H331.928ZM332.928 16.104H313.152V18.104H332.928V16.104ZM314.146 16.9908C313.904 14.864 312.543 13.3426 310.386 12.3963C308.279 11.4713 305.331 11.048 301.633 11.048V13.048C305.23 13.048 307.85 13.4674 309.583 14.2277C311.266 14.9667 312.017 15.9734 312.159 17.2172L314.146 16.9908ZM301.633 11.048H300.992V13.048H301.633V11.048ZM300.992 11.048C297.979 11.048 295.584 11.2402 293.85 11.6509L294.311 13.5971C295.82 13.2398 298.033 13.048 300.992 13.048V11.048ZM293.874 11.6454C293.033 11.8226 292.314 12.0238 291.738 12.2569C291.185 12.4802 290.651 12.7764 290.299 13.2068L291.846 14.4732C291.878 14.4342 292.037 14.2931 292.487 14.1111C292.913 13.9389 293.507 13.7667 294.286 13.6025L293.874 11.6454ZM290.329 13.171C289.74 13.826 289.496 14.6631 289.496 15.568H291.496C291.496 15.0222 291.637 14.7074 291.816 14.509L290.329 13.171ZM289.496 15.568V15.632H291.496V15.568H289.496ZM289.496 15.632C289.496 16.5679 289.779 17.4168 290.397 18.0967L291.876 16.7513C291.641 16.4925 291.496 16.1468 291.496 15.632H289.496ZM290.429 18.1311C290.798 18.4999 291.309 18.7847 291.872 19.0191C292.448 19.2593 293.153 19.4765 293.972 19.6757L294.445 17.7323C293.685 17.5475 293.089 17.3593 292.641 17.1729C292.18 16.9806 291.944 16.8175 291.844 16.7169L290.429 18.1311ZM293.997 19.6814C295.672 20.0434 297.967 20.2369 300.85 20.2799L300.879 18.2801C298.045 18.2378 295.903 18.0472 294.42 17.7266L293.997 19.6814ZM300.842 20.2797L309.418 20.4717L309.463 18.4722L300.887 18.2803L300.842 20.2797ZM309.412 20.4716C318.384 20.7267 324.611 21.9839 328.265 24.1121L329.272 22.3839C325.161 19.9894 318.503 18.7293 309.469 18.4724L309.412 20.4716ZM328.272 24.1162C331.815 26.1405 333.592 29.3113 333.592 33.808H335.592C335.592 28.6621 333.488 24.7928 329.265 22.3798L328.272 24.1162ZM333.592 33.808V34.704H335.592V33.808H333.592ZM333.592 34.704C333.592 36.3724 333.389 37.8758 332.993 39.2218L334.912 39.7862C335.369 38.2308 335.592 36.5342 335.592 34.704H333.592ZM332.995 39.214C332.62 40.4527 331.852 41.7835 330.633 43.2052L332.152 44.5068C333.493 42.9418 334.432 41.3713 334.91 39.794L332.995 39.214ZM330.643 43.1944C329.469 44.5249 327.879 45.6878 325.84 46.6665L326.705 48.4695C328.933 47.4002 330.756 46.0884 332.142 44.5176L330.643 43.1944ZM325.848 46.6628C323.87 47.5912 321.107 48.3826 317.523 49.0152L317.87 50.9848C321.539 50.3374 324.494 49.5074 326.697 48.4732L325.848 46.6628ZM317.532 49.0136C314.017 49.5995 309.871 49.896 305.089 49.896V51.896C309.948 51.896 314.208 51.5952 317.861 50.9864L317.532 49.0136ZM386.249 2.384L386.079 3.36948L386.092 3.37166L386.249 2.384ZM395.017 4.624L394.646 5.55247L394.656 5.55651L394.666 5.56033L395.017 4.624ZM401.225 8.016L400.61 8.80432L400.62 8.81259L400.631 8.82057L401.225 8.016ZM405.449 12.048L406.249 11.448V11.448L405.449 12.048ZM407.881 16.528L406.943 16.8737L406.947 16.8845L406.951 16.8952L407.881 16.528ZM409.097 20.944L408.105 21.072L408.107 21.0876L408.11 21.1032L409.097 20.944ZM409.097 31.184L408.11 31.0248L408.107 31.0404L408.105 31.056L409.097 31.184ZM407.881 35.664L406.948 35.305L406.945 35.3116L406.943 35.3183L407.881 35.664ZM405.449 40.208L404.64 39.6198L404.637 39.6244L405.449 40.208ZM401.289 44.304L400.683 43.5086L401.289 44.304ZM395.081 47.76L395.452 48.6885L395.081 47.76ZM386.313 50L386.156 49.0122L386.143 49.0146L386.313 50ZM360.201 50L360.369 49.0142L360.359 49.0126L360.201 50ZM351.433 47.76L351.062 48.6885L351.067 48.6908L351.433 47.76ZM345.225 44.304L344.619 45.0994L345.225 44.304ZM341.001 40.208L340.181 40.7798L340.191 40.7941L340.201 40.808L341.001 40.208ZM338.569 35.664L337.628 36.0019L337.633 36.0166L337.639 36.0312L338.569 35.664ZM337.353 31.184L336.361 31.312L336.363 31.3276L336.366 31.3432L337.353 31.184ZM337.353 20.944L336.366 20.7848L336.363 20.8004L336.361 20.816L337.353 20.944ZM338.569 16.528L337.639 16.1608L337.635 16.1715L337.631 16.1823L338.569 16.528ZM341.001 12.048L340.201 11.448L340.195 11.4561L340.189 11.4644L341.001 12.048ZM345.225 8.016L345.819 8.82057L345.825 8.81605L345.831 8.81143L345.225 8.016ZM351.433 4.624L351.79 5.55826L351.799 5.55475L351.433 4.624ZM360.201 2.384L360.359 3.37141L360.369 3.36974L360.201 2.384ZM389.833 21.648L388.909 22.0304L388.914 22.0419L389.833 21.648ZM387.209 18.064L386.515 18.7838L386.521 18.7899L386.528 18.7959L387.209 18.064ZM381.833 15.312L382.108 14.3505L381.833 15.312ZM364.553 15.312L364.278 14.3505L364.553 15.312ZM359.177 18.064L359.871 18.7838L359.177 18.064ZM356.617 21.648L355.693 21.2656L355.69 21.274L355.686 21.2823L356.617 21.648ZM356.681 30.352L355.752 30.7234L355.757 30.7344L356.681 30.352ZM359.241 34.064L358.522 34.7586L358.528 34.7649L358.534 34.7711L359.241 34.064ZM364.617 36.944L364.327 37.9009L364.331 37.9023L364.617 36.944ZM381.833 37.008L382.108 37.9696L382.119 37.9663L381.833 37.008ZM387.273 34.128L387.98 34.8351L387.273 34.128ZM389.833 30.48L390.757 30.8624L390.761 30.8514L389.833 30.48ZM371.849 2.488H374.729V0.487999H371.849V2.488ZM374.729 2.488C378.907 2.488 382.689 2.78351 386.079 3.36939L386.419 1.39861C382.897 0.789825 378.999 0.487999 374.729 0.487999V2.488ZM386.092 3.37166C389.544 3.91893 392.39 4.65004 394.646 5.55247L395.388 3.69552C392.951 2.72063 389.951 1.9584 386.406 1.39633L386.092 3.37166ZM394.666 5.56033C396.974 6.42592 398.951 7.51 400.61 8.80432L401.84 7.22768C400 5.79133 397.839 4.61408 395.368 3.68767L394.666 5.56033ZM400.631 8.82057C402.367 10.102 403.698 11.3801 404.649 12.648L406.249 11.448C405.152 9.98525 403.667 8.57532 401.819 7.21143L400.631 8.82057ZM404.649 12.648C405.614 13.9348 406.378 15.3423 406.943 16.8737L408.819 16.1823C408.189 14.4711 407.332 12.8919 406.249 11.448L404.649 12.648ZM406.951 16.8952C407.569 18.4617 407.948 19.8519 408.105 21.072L410.089 20.816C409.905 19.3908 409.473 17.837 408.811 16.1608L406.951 16.8952ZM408.11 21.1032C408.314 22.3691 408.417 23.7023 408.417 25.104H410.417C410.417 23.6043 410.307 22.1642 410.084 20.7848L408.11 21.1032ZM408.417 25.104V27.024H410.417V25.104H408.417ZM408.417 27.024C408.417 28.4257 408.314 29.7589 408.11 31.0248L410.084 31.3432C410.307 29.9638 410.417 28.5237 410.417 27.024H408.417ZM408.105 31.056C407.948 32.2783 407.568 33.6922 406.948 35.305L408.814 36.023C409.474 34.3078 409.905 32.7351 410.089 31.312L408.105 31.056ZM406.943 35.3183C406.377 36.8526 405.611 38.2857 404.64 39.6198L406.258 40.7962C407.335 39.3143 408.19 37.7181 408.819 36.0097L406.943 35.3183ZM404.637 39.6244C403.729 40.8873 402.421 42.1842 400.683 43.5086L401.895 45.0994C403.741 43.6931 405.206 42.2594 406.261 40.7916L404.637 39.6244ZM400.683 43.5086C398.971 44.813 396.982 45.9224 394.71 46.8315L395.452 48.6885C397.873 47.7203 400.023 46.5257 401.895 45.0994L400.683 43.5086ZM394.71 46.8315C392.454 47.734 389.608 48.4651 386.156 49.0123L386.47 50.9877C390.015 50.4256 393.015 49.6634 395.452 48.6885L394.71 46.8315ZM386.143 49.0146C382.753 49.6004 378.95 49.896 374.729 49.896V51.896C379.041 51.896 382.961 51.5943 386.483 50.9854L386.143 49.0146ZM374.729 49.896H371.849V51.896H374.729V49.896ZM371.849 49.896C367.628 49.896 363.803 49.6004 360.369 49.0143L360.033 50.9857C363.597 51.5942 367.537 51.896 371.849 51.896V49.896ZM360.359 49.0126C356.951 48.4655 354.102 47.7341 351.799 46.8292L351.067 48.6908C353.543 49.6632 356.539 50.4251 360.043 50.9874L360.359 49.0126ZM351.804 46.8315C349.532 45.9224 347.543 44.813 345.831 43.5086L344.619 45.0994C346.491 46.5257 348.641 47.7203 351.062 48.6885L351.804 46.8315ZM345.831 43.5086C344.09 42.1824 342.755 40.8803 341.801 39.608L340.201 40.808C341.295 42.2663 342.776 43.6949 344.619 45.0994L345.831 43.5086ZM341.821 39.6362C340.885 38.2929 340.111 36.8471 339.499 35.2968L337.639 36.0312C338.307 37.7236 339.154 39.3071 340.181 40.7798L341.821 39.6362ZM339.51 35.3261C338.928 33.7029 338.541 32.2709 338.34 31.0248L336.366 31.3432C336.591 32.7424 337.016 34.2971 337.628 36.0019L339.51 35.3261ZM338.345 31.056C338.18 29.7793 338.097 28.4356 338.097 27.024H336.097C336.097 28.5138 336.185 29.9434 336.361 31.312L338.345 31.056ZM338.097 27.024V25.104H336.097V27.024H338.097ZM338.097 25.104C338.097 23.6924 338.18 22.3487 338.345 21.072L336.361 20.816C336.185 22.1846 336.097 23.6142 336.097 25.104H338.097ZM338.34 21.1032C338.541 19.8593 338.926 18.451 339.507 16.8737L337.631 16.1823C337.017 17.8477 336.592 19.3833 336.366 20.7848L338.34 21.1032ZM339.499 16.8952C340.11 15.3478 340.882 13.9275 341.813 12.6316L340.189 11.4644C339.158 12.8991 338.308 14.4656 337.639 16.1608L339.499 16.8952ZM341.801 12.648C342.752 11.3801 344.083 10.102 345.819 8.82057L344.631 7.21143C342.783 8.57532 341.298 9.98525 340.201 11.448L341.801 12.648ZM345.831 8.81143C347.539 7.51027 349.522 6.42398 351.79 5.55821L351.076 3.68978C348.65 4.61602 346.495 5.79107 344.619 7.22057L345.831 8.81143ZM351.799 5.55475C354.102 4.64986 356.951 3.91845 360.359 3.37136L360.043 1.39664C356.539 1.95888 353.543 2.72081 351.067 3.69324L351.799 5.55475ZM360.369 3.36974C363.803 2.78357 367.628 2.488 371.849 2.488V0.487999C367.537 0.487999 363.597 0.789766 360.033 1.39826L360.369 3.36974ZM391.601 26.448V25.552H389.601V26.448H391.601ZM391.601 25.552C391.601 24.02 391.322 22.5833 390.752 21.2541L388.914 22.0419C389.368 23.102 389.601 24.268 389.601 25.552H391.601ZM390.757 21.2656C390.178 19.8657 389.206 18.557 387.89 17.3321L386.528 18.7959C387.687 19.875 388.464 20.9556 388.909 22.0303L390.757 21.2656ZM387.903 17.3442C386.546 16.0358 384.582 15.0575 382.108 14.3505L381.558 16.2735C383.862 16.9318 385.482 17.7882 386.515 18.7838L387.903 17.3442ZM382.108 14.3505C379.605 13.6353 376.649 13.288 373.257 13.288V15.288C376.521 15.288 379.283 15.6233 381.558 16.2735L382.108 14.3505ZM373.257 13.288C369.783 13.288 366.783 13.6348 364.278 14.3505L364.828 16.2735C367.101 15.6239 369.905 15.288 373.257 15.288V13.288ZM364.278 14.3505C361.804 15.0575 359.84 16.0358 358.483 17.3442L359.871 18.7838C360.904 17.7882 362.524 16.9318 364.828 16.2735L364.278 14.3505ZM358.483 17.3442C357.212 18.5694 356.269 19.8746 355.693 21.2656L357.541 22.0303C357.989 20.9467 358.752 19.8626 359.871 18.7838L358.483 17.3442ZM355.686 21.2823C355.167 22.6043 354.913 24.031 354.913 25.552H356.913C356.913 24.257 357.128 23.081 357.548 22.0137L355.686 21.2823ZM354.913 25.552V26.32H356.913V25.552H354.913ZM354.913 26.32C354.913 27.8524 355.192 29.3227 355.753 30.7234L357.609 29.9806C357.146 28.8213 356.913 27.6036 356.913 26.32H354.913ZM355.757 30.7344C356.328 32.1155 357.263 33.4555 358.522 34.7586L359.96 33.3694C358.829 32.1979 358.057 31.0632 357.605 29.9696L355.757 30.7344ZM358.534 34.7711C359.887 36.1244 361.849 37.1489 364.327 37.9009L364.907 35.9871C362.606 35.2884 360.984 34.393 359.948 33.3569L358.534 34.7711ZM364.331 37.9023C366.88 38.6623 369.86 39.032 373.257 39.032V37.032C369.998 37.032 367.218 36.6763 364.903 35.9857L364.331 37.9023ZM373.257 39.032C376.649 39.032 379.605 38.6847 382.108 37.9695L381.558 36.0465C379.283 36.6966 376.521 37.032 373.257 37.032V39.032ZM382.119 37.9663C384.636 37.2154 386.624 36.1915 387.98 34.8351L386.566 33.4209C385.533 34.4538 383.894 35.3499 381.547 36.0497L382.119 37.9663ZM387.98 34.8351C389.244 33.5709 390.183 32.2484 390.757 30.8624L388.909 30.0976C388.459 31.1863 387.691 32.2957 386.566 33.4209L387.98 34.8351ZM390.761 30.8514C391.322 29.4507 391.601 27.9804 391.601 26.448H389.601C389.601 27.7316 389.368 28.9493 388.905 30.1086L390.761 30.8514ZM413.435 2.384V1.384H412.435V2.384H413.435ZM431.675 2.384H432.675V1.384H431.675V2.384ZM432.315 28.24L431.358 28.53L431.361 28.5383L432.315 28.24ZM434.427 32.272L433.624 32.8678L433.629 32.8742L433.633 32.8804L434.427 32.272ZM438.907 35.344L438.549 36.2779L438.556 36.2803L438.907 35.344ZM453.499 35.344L453.141 34.4101L453.499 35.344ZM457.979 32.272L457.188 31.6598L457.185 31.6636L457.979 32.272ZM460.155 28.24L461.11 28.5383L461.112 28.53L460.155 28.24ZM460.795 2.384V1.384H459.795V2.384H460.795ZM478.971 2.384H479.971V1.384H478.971V2.384ZM478.331 31.376L479.31 31.58L478.331 31.376ZM475.643 38.096L476.515 38.5855V38.5855L475.643 38.096ZM470.331 44.432L469.695 43.6601L470.331 44.432ZM461.179 48.976L461.47 49.9327L461.48 49.9297L461.179 48.976ZM431.163 48.976L430.865 49.9307L430.875 49.9335L431.163 48.976ZM421.883 44.432L421.247 45.204L421.255 45.2099L421.883 44.432ZM416.571 38.096L415.689 38.5674L415.694 38.5765L415.699 38.5855L416.571 38.096ZM414.011 31.376L413.029 31.5641L414.011 31.376ZM414.435 25.104V2.384H412.435V25.104H414.435ZM413.435 3.384H431.675V1.384H413.435V3.384ZM430.675 2.384V23.696H432.675V2.384H430.675ZM430.675 23.696C430.675 25.4057 430.9 27.0189 431.358 28.53L433.272 27.95C432.877 26.6451 432.675 25.229 432.675 23.696H430.675ZM431.361 28.5383C431.825 30.0254 432.586 31.4686 433.624 32.8678L435.23 31.6762C434.306 30.4301 433.658 29.1852 433.269 27.9417L431.361 28.5383ZM433.633 32.8804C434.759 34.3481 436.427 35.4651 438.549 36.2779L439.265 34.4101C437.376 33.6869 436.058 32.7559 435.221 31.6636L433.633 32.8804ZM438.556 36.2803C440.745 37.1011 443.323 37.496 446.267 37.496V35.496C443.493 35.496 441.165 35.1229 439.258 34.4077L438.556 36.2803ZM446.267 37.496C449.169 37.496 451.708 37.1008 453.857 36.2779L453.141 34.4101C451.28 35.1232 448.997 35.496 446.267 35.496V37.496ZM453.857 36.2779C455.979 35.4651 457.647 34.3481 458.773 32.8804L457.185 31.6636C456.348 32.7559 455.03 33.6869 453.141 34.4101L453.857 36.2779ZM458.77 32.8842C459.854 31.4831 460.642 30.0346 461.109 28.5383L459.201 27.9417C458.815 29.1761 458.152 30.4156 457.188 31.6598L458.77 32.8842ZM461.112 28.53C461.57 27.0189 461.795 25.4057 461.795 23.696H459.795C459.795 25.229 459.593 26.6451 459.198 27.95L461.112 28.53ZM461.795 23.696V2.384H459.795V23.696H461.795ZM460.795 3.384H478.971V1.384H460.795V3.384ZM477.971 2.384V25.104H479.971V2.384H477.971ZM477.971 25.104C477.971 27.1702 477.764 29.1924 477.352 31.172L479.31 31.58C479.751 29.4636 479.971 27.3045 479.971 25.104H477.971ZM477.352 31.172C476.952 33.0929 476.102 35.2359 474.771 37.6065L476.515 38.5855C477.915 36.0921 478.857 33.7551 479.31 31.58L477.352 31.172ZM474.771 37.6065C473.467 39.9293 471.777 41.9459 469.695 43.6601L470.967 45.2039C473.237 43.3341 475.088 41.1267 476.515 38.5855L474.771 37.6065ZM469.695 43.6601C467.653 45.3421 464.733 46.8073 460.878 48.0223L461.48 49.9297C465.476 48.6701 468.657 47.1059 470.967 45.2039L469.695 43.6601ZM460.888 48.0193C457.077 49.1792 452.656 49.768 447.611 49.768V51.768C452.806 51.768 457.43 51.1621 461.47 49.9327L460.888 48.0193ZM447.611 49.768H445.051V51.768H447.611V49.768ZM445.051 49.768C439.832 49.768 435.304 49.1784 431.451 48.0185L430.875 49.9335C434.958 51.1629 439.688 51.768 445.051 51.768V49.768ZM431.461 48.0213C427.563 46.8059 424.598 45.3394 422.511 43.6541L421.255 45.2099C423.605 47.1086 426.827 48.6715 430.865 49.9307L431.461 48.0213ZM422.519 43.6601C420.437 41.9459 418.747 39.9293 417.443 37.6065L415.699 38.5855C417.126 41.1267 418.977 43.3341 421.247 45.2039L422.519 43.6601ZM417.453 37.6246C416.161 35.2081 415.353 33.0651 414.993 31.1879L413.029 31.5641C413.437 33.6976 414.335 36.0346 415.689 38.5674L417.453 37.6246ZM414.993 31.1879C414.622 29.2485 414.435 27.221 414.435 25.104H412.435C412.435 27.339 412.632 29.4928 413.029 31.5641L414.993 31.1879ZM484.572 2.384V1.384H483.572V2.384H484.572ZM504.924 2.384L505.624 1.66949L505.332 1.384H504.924V2.384ZM532.572 29.456L531.872 30.1705L533.572 31.8347V29.456H532.572ZM532.572 2.384V1.384H531.572V2.384H532.572ZM550.62 2.384H551.62V1.384H550.62V2.384ZM550.62 50V51H551.62V50H550.62ZM532.444 50L531.749 50.7186L532.039 51H532.444V50ZM502.62 21.136L503.315 20.4174L501.62 18.7765V21.136H502.62ZM502.62 50V51H503.62V50H502.62ZM484.572 50H483.572V51H484.572V50ZM484.572 3.384H504.924V1.384H484.572V3.384ZM504.224 3.09851L531.872 30.1705L533.272 28.7415L505.624 1.66949L504.224 3.09851ZM533.572 29.456V2.384H531.572V29.456H533.572ZM532.572 3.384H550.62V1.384H532.572V3.384ZM549.62 2.384V50H551.62V2.384H549.62ZM550.62 49H532.444V51H550.62V49ZM533.139 49.2814L503.315 20.4174L501.925 21.8546L531.749 50.7186L533.139 49.2814ZM501.62 21.136V50H503.62V21.136H501.62ZM502.62 49H484.572V51H502.62V49ZM485.572 50V2.384H483.572V50H485.572ZM556.76 50H555.76V51H556.76V50ZM556.76 2.384V1.384H555.76V2.384H556.76ZM604.632 3.664L604.835 2.68502L604.632 3.664ZM614.552 7.056L614.063 7.92876V7.92876L614.552 7.056ZM620.695 12.176L619.91 12.7946L619.918 12.8047L620.695 12.176ZM624.023 18.256L624.984 17.976L624.023 18.256ZM624.088 33.424L623.122 33.1626L623.12 33.172L623.117 33.1815L624.088 33.424ZM620.951 39.632L620.153 39.0293L620.146 39.0399L620.951 39.632ZM614.935 45.008L615.448 45.8668L615.452 45.8642L614.935 45.008ZM605.016 48.592L604.796 47.6163L604.794 47.6168L605.016 48.592ZM574.935 14.864V13.864H573.935V14.864H574.935ZM574.935 37.392H573.935V38.392H574.935V37.392ZM557.76 50V2.384H555.76V50H557.76ZM556.76 3.384H590.552V1.384H556.76V3.384ZM590.552 3.384C595.791 3.384 600.414 3.80672 604.428 4.64298L604.835 2.68502C600.657 1.81461 595.894 1.384 590.552 1.384V3.384ZM604.428 4.64298C608.465 5.48404 611.665 6.58728 614.063 7.92876L615.04 6.18324C612.403 4.70872 608.99 3.55062 604.835 2.68502L604.428 4.64298ZM614.063 7.92876C616.481 9.28079 618.423 10.9054 619.91 12.7946L621.481 11.5574C619.811 9.43597 617.657 7.64721 615.04 6.18324L614.063 7.92876ZM619.918 12.8047C621.473 14.728 622.51 16.6388 623.063 18.536L624.984 17.976C624.342 15.7772 623.161 13.6346 621.473 11.5473L619.918 12.8047ZM623.063 18.536C623.631 20.4829 623.919 22.6062 623.919 24.912H625.919C625.919 22.4391 625.61 20.1251 624.984 17.976L623.063 18.536ZM623.919 24.912V26.832H625.919V24.912H623.919ZM623.919 26.832C623.919 29.0996 623.652 31.2083 623.122 33.1626L625.053 33.6854C625.633 31.5437 625.919 29.2577 625.919 26.832H623.919ZM623.117 33.1815C622.645 35.0718 621.67 37.0209 620.153 39.0294L621.75 40.2346C623.39 38.0617 624.506 35.8722 625.058 33.6665L623.117 33.1815ZM620.146 39.0399C618.696 41.0129 616.794 42.7188 614.419 44.1518L615.452 45.8642C618.027 44.3105 620.135 42.4325 621.757 40.2241L620.146 39.0399ZM614.423 44.1492C612.116 45.5253 608.922 46.6902 604.796 47.6163L605.235 49.5677C609.472 48.6165 612.891 47.392 615.448 45.8668L614.423 44.1492ZM604.794 47.6168C600.745 48.5351 596.022 49 590.615 49V51C596.131 51 601.008 50.5263 605.237 49.5672L604.794 47.6168ZM590.615 49H556.76V51H590.615V49ZM573.935 14.864V37.392H575.935V14.864H573.935ZM574.935 38.392H588.44V36.392H574.935V38.392ZM588.44 38.392C594.379 38.392 599.005 37.4582 602.174 35.453C605.421 33.399 607.039 30.2823 607.039 26.256H605.039C605.039 29.6537 603.725 32.105 601.105 33.7629C598.407 35.4698 594.233 36.392 588.44 36.392V38.392ZM607.039 26.256V25.872H605.039V26.256H607.039ZM607.039 25.872C607.039 21.8832 605.416 18.7986 602.17 16.7682C599.002 14.7867 594.378 13.864 588.44 13.864V15.864C594.234 15.864 598.411 16.7759 601.109 18.4638C603.73 20.1028 605.039 22.5222 605.039 25.872H607.039ZM588.44 13.864H574.935V15.864H588.44V13.864Z" fill="white"/>
</svg>
