<svg width="264" height="60" viewBox="0 0 264 60" fill="none" xmlns="http://www.w3.org/2000/svg">
<line x1="2" y1="8.74228e-08" x2="2" y2="60" stroke="#040404" stroke-width="4"/>
<line x1="62.231" y1="8.70115e-08" x2="62.231" y2="60" stroke="#040404" stroke-width="4"/>
<line x1="9.94824" y1="2.17529e-08" x2="9.94824" y2="60" stroke="#040404"/>
<line x1="73.7217" y1="2.17529e-08" x2="73.7217" y2="60" stroke="#040404"/>
<line x1="38.292" y1="2.17529e-08" x2="38.292" y2="60" stroke="#040404"/>
<line x1="43.0161" y1="2.17529e-08" x2="43.0161" y2="60" stroke="#040404"/>
<line x1="15.6719" y1="6.52586e-08" x2="15.6719" y2="60" stroke="#040404" stroke-width="3"/>
<line x1="69.9976" y1="6.52586e-08" x2="69.9976" y2="60" stroke="#040404" stroke-width="3"/>
<line x1="34.5679" y1="6.52586e-08" x2="34.5679" y2="60" stroke="#040404" stroke-width="3"/>
<line x1="26.6201" y1="1.30517e-07" x2="26.6201" y2="60" stroke="#040404" stroke-width="6"/>
<line x1="47.8779" y1="1.30517e-07" x2="47.8779" y2="60" stroke="#040404" stroke-width="6"/>
<line x1="78.7646" y1="8.70115e-08" x2="78.7646" y2="60" stroke="#040404" stroke-width="4"/>
<line x1="138.995" y1="8.70115e-08" x2="138.995" y2="60" stroke="#040404" stroke-width="4"/>
<line x1="86.7129" y1="2.17529e-08" x2="86.7129" y2="60" stroke="#040404"/>
<line x1="150.486" y1="2.17529e-08" x2="150.486" y2="60" stroke="#040404"/>
<line x1="115.057" y1="2.17529e-08" x2="115.057" y2="60" stroke="#040404"/>
<line x1="119.78" y1="2.17529e-08" x2="119.78" y2="60" stroke="#040404"/>
<line x1="92.4365" y1="6.52586e-08" x2="92.4365" y2="60" stroke="#040404" stroke-width="3"/>
<line x1="146.762" y1="6.52586e-08" x2="146.762" y2="60" stroke="#040404" stroke-width="3"/>
<line x1="111.333" y1="6.52586e-08" x2="111.333" y2="60" stroke="#040404" stroke-width="3"/>
<line x1="103.385" y1="1.30517e-07" x2="103.385" y2="60" stroke="#040404" stroke-width="6"/>
<line x1="124.643" y1="1.30517e-07" x2="124.643" y2="60" stroke="#040404" stroke-width="6"/>
<line x1="155.53" y1="8.70115e-08" x2="155.53" y2="60" stroke="#040404" stroke-width="4"/>
<line x1="215.76" y1="8.70115e-08" x2="215.76" y2="60" stroke="#040404" stroke-width="4"/>
<line x1="163.477" y1="2.17529e-08" x2="163.477" y2="60" stroke="#040404"/>
<line x1="227.251" y1="2.17529e-08" x2="227.251" y2="60" stroke="#040404"/>
<line x1="191.821" y1="2.17529e-08" x2="191.821" y2="60" stroke="#040404"/>
<line x1="196.545" y1="2.17529e-08" x2="196.545" y2="60" stroke="#040404"/>
<line x1="169.201" y1="6.52586e-08" x2="169.201" y2="60" stroke="#040404" stroke-width="3"/>
<line x1="223.527" y1="6.52586e-08" x2="223.527" y2="60" stroke="#040404" stroke-width="3"/>
<line x1="188.097" y1="6.52586e-08" x2="188.097" y2="60" stroke="#040404" stroke-width="3"/>
<line x1="180.149" y1="1.30517e-07" x2="180.149" y2="60" stroke="#040404" stroke-width="6"/>
<line x1="201.407" y1="1.30517e-07" x2="201.407" y2="60" stroke="#040404" stroke-width="6"/>
<line x1="262.5" y1="6.52586e-08" x2="262.5" y2="60" stroke="#040404" stroke-width="3"/>
<line x1="240.061" y1="6.52586e-08" x2="240.061" y2="60" stroke="#040404" stroke-width="3"/>
<line x1="232.113" y1="1.30517e-07" x2="232.113" y2="60" stroke="#040404" stroke-width="6"/>
<line x1="253.371" y1="1.30517e-07" x2="253.371" y2="60" stroke="#040404" stroke-width="6"/>
</svg>
