<svg width="10" height="12" viewBox="0 0 10 12" fill="none" xmlns="http://www.w3.org/2000/svg">
<path d="M5.00016 0.166672C3.76249 0.166672 2.5755 0.658337 1.70033 1.53351C0.825161 2.40868 0.333496 3.59566 0.333496 4.83334C0.333496 7.98334 4.446 11.5417 4.621 11.6933C4.72666 11.7837 4.86112 11.8334 5.00016 11.8334C5.1392 11.8334 5.27367 11.7837 5.37933 11.6933C5.5835 11.5417 9.66683 7.98334 9.66683 4.83334C9.66683 3.59566 9.17516 2.40868 8.29999 1.53351C7.42482 0.658337 6.23784 0.166672 5.00016 0.166672ZM5.00016 10.4625C3.75766 9.29584 1.50016 6.78167 1.50016 4.83334C1.50016 3.90508 1.86891 3.01484 2.52529 2.35846C3.18167 1.70209 4.0719 1.33334 5.00016 1.33334C5.92842 1.33334 6.81866 1.70209 7.47504 2.35846C8.13141 3.01484 8.50016 3.90508 8.50016 4.83334C8.50016 6.78167 6.24266 9.30167 5.00016 10.4625ZM5.00016 2.50001C4.53867 2.50001 4.08755 2.63685 3.70383 2.89324C3.32012 3.14963 3.02105 3.51405 2.84444 3.94041C2.66784 4.36677 2.62163 4.83593 2.71166 5.28855C2.8017 5.74117 3.02392 6.15693 3.35025 6.48325C3.67657 6.80958 4.09233 7.03181 4.54495 7.12184C4.99757 7.21187 5.46673 7.16566 5.89309 6.98906C6.31945 6.81245 6.68387 6.51338 6.94026 6.12967C7.19665 5.74595 7.3335 5.29483 7.3335 4.83334C7.3335 4.2145 7.08766 3.62101 6.65008 3.18342C6.21249 2.74584 5.619 2.50001 5.00016 2.50001ZM5.00016 6C4.76942 6 4.54385 5.93158 4.352 5.80339C4.16014 5.67519 4.0106 5.49298 3.9223 5.2798C3.834 5.06662 3.8109 4.83204 3.85591 4.60573C3.90093 4.37942 4.01204 4.17154 4.1752 4.00838C4.33837 3.84522 4.54625 3.7341 4.77256 3.68909C4.99887 3.64407 5.23345 3.66718 5.44663 3.75548C5.65981 3.84378 5.84201 3.99332 5.97021 4.18517C6.0984 4.37703 6.16683 4.60259 6.16683 4.83334C6.16683 5.14276 6.04391 5.4395 5.82512 5.6583C5.60633 5.87709 5.30958 6 5.00016 6Z" fill="#333333"/>
</svg>
